STARTFONT 2.1
FONT -Nego-Imperium-Medium-R-Normal-Sans-11-110-72-72-m-60-ISO10646-1
SIZE 11 72 72
FONTBOUNDINGBOX 7 13 0 -3
COMMENT "Generated by fontforge, http://fontforge.sourceforge.net"
COMMENT "Font converted from PSF2 to BDF."
STARTPROPERTIES 18
POINT_SIZE 110
PIXEL_SIZE 11
RESOLUTION_X 72
RESOLUTION_Y 72
FONT_ASCENT 9
FONT_DESCENT 2
AVERAGE_WIDTH 60
SPACING "m"
_ORIGINAL_FONT_NAME "imperiumpro-11.psfu.BAK"
_XMBDFED_INFO "Edited with xmbdfed 4.7."
FOUNDRY "Nego"
FAMILY_NAME "Imperium"
WEIGHT_NAME "Medium"
SLANT "R"
SETWIDTH_NAME "Normal"
ADD_STYLE_NAME "Sans"
CHARSET_REGISTRY "ISO10646"
CHARSET_ENCODING "1"
ENDPROPERTIES
CHARS 472
STARTCHAR char33
ENCODING 33
SWIDTH 636 0
DWIDTH 7 0
BBX 1 7 2 0
BITMAP
80
80
80
80
80
00
80
ENDCHAR
STARTCHAR char34
ENCODING 34
SWIDTH 636 0
DWIDTH 7 0
BBX 3 3 1 5
BITMAP
A0
A0
A0
ENDCHAR
STARTCHAR char35
ENCODING 35
SWIDTH 636 0
DWIDTH 7 0
BBX 5 5 0 2
BITMAP
50
F8
50
F8
50
ENDCHAR
STARTCHAR char36
ENCODING 36
SWIDTH 636 0
DWIDTH 7 0
BBX 5 7 0 0
BITMAP
20
78
A0
70
28
F0
20
ENDCHAR
STARTCHAR char37
ENCODING 37
SWIDTH 636 0
DWIDTH 7 0
BBX 5 7 1 0
BITMAP
40
A8
50
20
50
A8
10
ENDCHAR
STARTCHAR char38
ENCODING 38
SWIDTH 636 0
DWIDTH 7 0
BBX 5 7 0 0
BITMAP
60
90
A0
40
A8
90
68
ENDCHAR
STARTCHAR char39
ENCODING 39
SWIDTH 636 0
DWIDTH 7 0
BBX 2 3 1 5
BITMAP
C0
C0
80
ENDCHAR
STARTCHAR char40
ENCODING 40
SWIDTH 636 0
DWIDTH 7 0
BBX 3 9 1 -1
BITMAP
20
40
80
80
80
80
80
40
20
ENDCHAR
STARTCHAR char41
ENCODING 41
SWIDTH 636 0
DWIDTH 7 0
BBX 3 9 2 -1
BITMAP
80
40
20
20
20
20
20
40
80
ENDCHAR
STARTCHAR char42
ENCODING 42
SWIDTH 636 0
DWIDTH 7 0
BBX 5 5 0 1
BITMAP
20
A8
70
A8
20
ENDCHAR
STARTCHAR char43
ENCODING 43
SWIDTH 636 0
DWIDTH 7 0
BBX 5 5 0 1
BITMAP
20
20
F8
20
20
ENDCHAR
STARTCHAR char44
ENCODING 44
SWIDTH 636 0
DWIDTH 7 0
BBX 2 4 1 -2
BITMAP
C0
C0
C0
80
ENDCHAR
STARTCHAR char45
ENCODING 45
SWIDTH 636 0
DWIDTH 7 0
BBX 3 1 1 3
BITMAP
E0
ENDCHAR
STARTCHAR char46
ENCODING 46
SWIDTH 636 0
DWIDTH 7 0
BBX 2 2 2 0
BITMAP
C0
C0
ENDCHAR
STARTCHAR char47
ENCODING 47
SWIDTH 636 0
DWIDTH 7 0
BBX 5 10 0 -2
BITMAP
08
08
10
10
20
20
40
40
80
80
ENDCHAR
STARTCHAR char48
ENCODING 48
SWIDTH 636 0
DWIDTH 7 0
BBX 5 7 0 0
BITMAP
70
88
98
A8
C8
88
70
ENDCHAR
STARTCHAR char49
ENCODING 49
SWIDTH 636 0
DWIDTH 7 0
BBX 5 7 0 0
BITMAP
20
E0
20
20
20
20
F8
ENDCHAR
STARTCHAR char50
ENCODING 50
SWIDTH 636 0
DWIDTH 7 0
BBX 5 7 0 0
BITMAP
70
88
08
10
20
40
F8
ENDCHAR
STARTCHAR char51
ENCODING 51
SWIDTH 636 0
DWIDTH 7 0
BBX 5 7 0 0
BITMAP
70
88
08
30
08
88
70
ENDCHAR
STARTCHAR char52
ENCODING 52
SWIDTH 636 0
DWIDTH 7 0
BBX 5 7 0 0
BITMAP
10
30
50
90
F8
10
38
ENDCHAR
STARTCHAR char53
ENCODING 53
SWIDTH 636 0
DWIDTH 7 0
BBX 5 7 0 0
BITMAP
F8
80
F0
08
08
88
70
ENDCHAR
STARTCHAR char54
ENCODING 54
SWIDTH 636 0
DWIDTH 7 0
BBX 5 7 0 0
BITMAP
70
80
F0
88
88
88
70
ENDCHAR
STARTCHAR char55
ENCODING 55
SWIDTH 636 0
DWIDTH 7 0
BBX 5 7 0 0
BITMAP
F8
08
08
10
20
20
20
ENDCHAR
STARTCHAR char56
ENCODING 56
SWIDTH 636 0
DWIDTH 7 0
BBX 5 7 0 0
BITMAP
70
88
88
70
88
88
70
ENDCHAR
STARTCHAR char57
ENCODING 57
SWIDTH 636 0
DWIDTH 7 0
BBX 5 7 0 0
BITMAP
70
88
88
88
78
08
70
ENDCHAR
STARTCHAR char58
ENCODING 58
SWIDTH 636 0
DWIDTH 7 0
BBX 2 5 2 0
BITMAP
C0
C0
00
C0
C0
ENDCHAR
STARTCHAR char59
ENCODING 59
SWIDTH 636 0
DWIDTH 7 0
BBX 3 6 0 -1
BITMAP
60
60
00
60
60
C0
ENDCHAR
STARTCHAR char60
ENCODING 60
SWIDTH 636 0
DWIDTH 7 0
BBX 4 7 1 0
BITMAP
10
20
40
80
40
20
10
ENDCHAR
STARTCHAR char61
ENCODING 61
SWIDTH 636 0
DWIDTH 7 0
BBX 5 3 0 2
BITMAP
F8
00
F8
ENDCHAR
STARTCHAR char62
ENCODING 62
SWIDTH 636 0
DWIDTH 7 0
BBX 4 7 1 0
BITMAP
80
40
20
10
20
40
80
ENDCHAR
STARTCHAR char63
ENCODING 63
SWIDTH 636 0
DWIDTH 7 0
BBX 5 7 0 0
BITMAP
70
88
08
10
20
00
20
ENDCHAR
STARTCHAR char64
ENCODING 64
SWIDTH 636 0
DWIDTH 7 0
BBX 5 7 0 0
BITMAP
70
88
B8
A8
B8
80
78
ENDCHAR
STARTCHAR char65
ENCODING 65
SWIDTH 636 0
DWIDTH 7 0
BBX 5 7 0 0
BITMAP
70
88
88
F8
88
88
88
ENDCHAR
STARTCHAR char66
ENCODING 66
SWIDTH 636 0
DWIDTH 7 0
BBX 5 7 0 0
BITMAP
F0
88
88
F0
88
88
F0
ENDCHAR
STARTCHAR char67
ENCODING 67
SWIDTH 636 0
DWIDTH 7 0
BBX 5 7 0 0
BITMAP
70
88
80
80
80
88
70
ENDCHAR
STARTCHAR char68
ENCODING 68
SWIDTH 636 0
DWIDTH 7 0
BBX 5 7 0 0
BITMAP
F0
88
88
88
88
88
F0
ENDCHAR
STARTCHAR char69
ENCODING 69
SWIDTH 636 0
DWIDTH 7 0
BBX 5 7 0 0
BITMAP
F8
80
80
F0
80
80
F8
ENDCHAR
STARTCHAR char70
ENCODING 70
SWIDTH 636 0
DWIDTH 7 0
BBX 5 7 0 0
BITMAP
F8
80
80
F0
80
80
80
ENDCHAR
STARTCHAR char71
ENCODING 71
SWIDTH 636 0
DWIDTH 7 0
BBX 5 7 0 0
BITMAP
70
88
80
98
88
88
70
ENDCHAR
STARTCHAR char72
ENCODING 72
SWIDTH 636 0
DWIDTH 7 0
BBX 5 7 0 0
BITMAP
88
88
88
F8
88
88
88
ENDCHAR
STARTCHAR char73
ENCODING 73
SWIDTH 636 0
DWIDTH 7 0
BBX 3 7 1 0
BITMAP
E0
40
40
40
40
40
E0
ENDCHAR
STARTCHAR char74
ENCODING 74
SWIDTH 636 0
DWIDTH 7 0
BBX 5 7 0 0
BITMAP
08
08
08
08
88
88
70
ENDCHAR
STARTCHAR char75
ENCODING 75
SWIDTH 636 0
DWIDTH 7 0
BBX 5 7 0 0
BITMAP
88
90
A0
C0
A0
90
88
ENDCHAR
STARTCHAR char76
ENCODING 76
SWIDTH 636 0
DWIDTH 7 0
BBX 5 7 0 0
BITMAP
80
80
80
80
80
80
F8
ENDCHAR
STARTCHAR char77
ENCODING 77
SWIDTH 636 0
DWIDTH 7 0
BBX 5 7 0 0
BITMAP
88
D8
A8
A8
88
88
88
ENDCHAR
STARTCHAR char78
ENCODING 78
SWIDTH 636 0
DWIDTH 7 0
BBX 5 7 0 0
BITMAP
88
C8
A8
98
88
88
88
ENDCHAR
STARTCHAR char79
ENCODING 79
SWIDTH 636 0
DWIDTH 7 0
BBX 5 7 0 0
BITMAP
70
88
88
88
88
88
70
ENDCHAR
STARTCHAR char80
ENCODING 80
SWIDTH 636 0
DWIDTH 7 0
BBX 5 7 0 0
BITMAP
F0
88
88
F0
80
80
80
ENDCHAR
STARTCHAR char81
ENCODING 81
SWIDTH 636 0
DWIDTH 7 0
BBX 5 8 0 -1
BITMAP
70
88
88
88
88
A8
70
08
ENDCHAR
STARTCHAR char82
ENCODING 82
SWIDTH 636 0
DWIDTH 7 0
BBX 5 7 0 0
BITMAP
F0
88
88
F0
88
88
88
ENDCHAR
STARTCHAR char83
ENCODING 83
SWIDTH 636 0
DWIDTH 7 0
BBX 5 7 0 0
BITMAP
70
88
80
70
08
88
70
ENDCHAR
STARTCHAR char84
ENCODING 84
SWIDTH 636 0
DWIDTH 7 0
BBX 5 7 0 0
BITMAP
F8
A8
20
20
20
20
70
ENDCHAR
STARTCHAR char85
ENCODING 85
SWIDTH 636 0
DWIDTH 7 0
BBX 5 7 0 0
BITMAP
88
88
88
88
88
88
70
ENDCHAR
STARTCHAR char86
ENCODING 86
SWIDTH 636 0
DWIDTH 7 0
BBX 5 7 0 0
BITMAP
88
88
88
50
50
20
20
ENDCHAR
STARTCHAR char87
ENCODING 87
SWIDTH 636 0
DWIDTH 7 0
BBX 5 7 0 0
BITMAP
A8
A8
A8
A8
A8
A8
50
ENDCHAR
STARTCHAR char88
ENCODING 88
SWIDTH 636 0
DWIDTH 7 0
BBX 5 7 0 0
BITMAP
88
88
50
20
50
88
88
ENDCHAR
STARTCHAR char89
ENCODING 89
SWIDTH 636 0
DWIDTH 7 0
BBX 5 7 0 0
BITMAP
88
88
88
50
20
20
20
ENDCHAR
STARTCHAR char90
ENCODING 90
SWIDTH 636 0
DWIDTH 7 0
BBX 5 7 0 0
BITMAP
F8
88
10
20
40
88
F8
ENDCHAR
STARTCHAR char91
ENCODING 91
SWIDTH 636 0
DWIDTH 7 0
BBX 2 9 2 -1
BITMAP
C0
80
80
80
80
80
80
80
C0
ENDCHAR
STARTCHAR char92
ENCODING 92
SWIDTH 636 0
DWIDTH 7 0
BBX 5 10 1 -2
BITMAP
80
80
40
40
20
20
10
10
08
08
ENDCHAR
STARTCHAR char93
ENCODING 93
SWIDTH 636 0
DWIDTH 7 0
BBX 2 9 1 -1
BITMAP
C0
40
40
40
40
40
40
40
C0
ENDCHAR
STARTCHAR char94
ENCODING 94
SWIDTH 636 0
DWIDTH 7 0
BBX 5 3 0 4
BITMAP
20
50
88
ENDCHAR
STARTCHAR char95
ENCODING 95
SWIDTH 636 0
DWIDTH 7 0
BBX 6 1 0 -2
BITMAP
FC
ENDCHAR
STARTCHAR char96
ENCODING 96
SWIDTH 636 0
DWIDTH 7 0
BBX 2 2 1 6
BITMAP
80
40
ENDCHAR
STARTCHAR char97
ENCODING 97
SWIDTH 636 0
DWIDTH 7 0
BBX 5 5 0 0
BITMAP
78
88
88
98
68
ENDCHAR
STARTCHAR char98
ENCODING 98
SWIDTH 636 0
DWIDTH 7 0
BBX 5 7 0 0
BITMAP
80
80
F0
88
88
88
F0
ENDCHAR
STARTCHAR char99
ENCODING 99
SWIDTH 636 0
DWIDTH 7 0
BBX 5 5 0 0
BITMAP
78
80
80
80
78
ENDCHAR
STARTCHAR char100
ENCODING 100
SWIDTH 636 0
DWIDTH 7 0
BBX 5 7 0 0
BITMAP
08
08
78
88
88
88
78
ENDCHAR
STARTCHAR char101
ENCODING 101
SWIDTH 636 0
DWIDTH 7 0
BBX 5 5 0 0
BITMAP
70
88
F8
80
78
ENDCHAR
STARTCHAR char102
ENCODING 102
SWIDTH 636 0
DWIDTH 7 0
BBX 4 7 1 0
BITMAP
30
40
E0
40
40
40
40
ENDCHAR
STARTCHAR char103
ENCODING 103
SWIDTH 636 0
DWIDTH 7 0
BBX 5 7 0 -2
BITMAP
78
88
88
88
78
08
70
ENDCHAR
STARTCHAR char104
ENCODING 104
SWIDTH 636 0
DWIDTH 7 0
BBX 5 7 0 0
BITMAP
80
80
F0
88
88
88
88
ENDCHAR
STARTCHAR char105
ENCODING 105
SWIDTH 636 0
DWIDTH 7 0
BBX 3 7 1 0
BITMAP
40
00
C0
40
40
40
E0
ENDCHAR
STARTCHAR char106
ENCODING 106
SWIDTH 636 0
DWIDTH 7 0
BBX 3 9 0 -2
BITMAP
20
00
60
20
20
20
20
20
C0
ENDCHAR
STARTCHAR char107
ENCODING 107
SWIDTH 636 0
DWIDTH 7 0
BBX 5 7 0 0
BITMAP
80
80
90
A0
E0
90
88
ENDCHAR
STARTCHAR char108
ENCODING 108
SWIDTH 636 0
DWIDTH 7 0
BBX 3 7 1 0
BITMAP
C0
40
40
40
40
40
E0
ENDCHAR
STARTCHAR char109
ENCODING 109
SWIDTH 636 0
DWIDTH 7 0
BBX 5 5 0 0
BITMAP
F0
A8
A8
A8
A8
ENDCHAR
STARTCHAR char110
ENCODING 110
SWIDTH 636 0
DWIDTH 7 0
BBX 5 5 0 0
BITMAP
B0
C8
88
88
88
ENDCHAR
STARTCHAR char111
ENCODING 111
SWIDTH 636 0
DWIDTH 7 0
BBX 5 5 0 0
BITMAP
70
88
88
88
70
ENDCHAR
STARTCHAR char112
ENCODING 112
SWIDTH 636 0
DWIDTH 7 0
BBX 5 7 0 -2
BITMAP
F0
88
88
88
F0
80
80
ENDCHAR
STARTCHAR char113
ENCODING 113
SWIDTH 636 0
DWIDTH 7 0
BBX 5 7 0 -2
BITMAP
78
88
88
88
78
08
08
ENDCHAR
STARTCHAR char114
ENCODING 114
SWIDTH 636 0
DWIDTH 7 0
BBX 5 5 0 0
BITMAP
B0
C8
80
80
80
ENDCHAR
STARTCHAR char115
ENCODING 115
SWIDTH 636 0
DWIDTH 7 0
BBX 5 5 0 0
BITMAP
78
80
70
08
F0
ENDCHAR
STARTCHAR char116
ENCODING 116
SWIDTH 636 0
DWIDTH 7 0
BBX 4 7 1 0
BITMAP
40
40
E0
40
40
40
30
ENDCHAR
STARTCHAR char117
ENCODING 117
SWIDTH 636 0
DWIDTH 7 0
BBX 5 5 0 0
BITMAP
88
88
88
98
68
ENDCHAR
STARTCHAR char118
ENCODING 118
SWIDTH 636 0
DWIDTH 7 0
BBX 5 5 0 0
BITMAP
88
88
50
50
20
ENDCHAR
STARTCHAR char119
ENCODING 119
SWIDTH 636 0
DWIDTH 7 0
BBX 5 5 0 0
BITMAP
A8
A8
A8
A8
50
ENDCHAR
STARTCHAR char120
ENCODING 120
SWIDTH 636 0
DWIDTH 7 0
BBX 5 5 0 0
BITMAP
88
50
20
50
88
ENDCHAR
STARTCHAR char121
ENCODING 121
SWIDTH 636 0
DWIDTH 7 0
BBX 5 7 0 -2
BITMAP
88
88
88
88
78
08
70
ENDCHAR
STARTCHAR char122
ENCODING 122
SWIDTH 636 0
DWIDTH 7 0
BBX 5 5 0 0
BITMAP
F8
90
20
48
F8
ENDCHAR
STARTCHAR char123
ENCODING 123
SWIDTH 636 0
DWIDTH 7 0
BBX 3 11 1 -2
BITMAP
20
40
40
40
40
80
40
40
40
40
20
ENDCHAR
STARTCHAR char124
ENCODING 124
SWIDTH 636 0
DWIDTH 7 0
BBX 1 9 2 -1
BITMAP
80
80
80
80
80
80
80
80
80
ENDCHAR
STARTCHAR char125
ENCODING 125
SWIDTH 636 0
DWIDTH 7 0
BBX 3 11 1 -2
BITMAP
80
40
40
40
40
20
40
40
40
40
80
ENDCHAR
STARTCHAR char126
ENCODING 126
SWIDTH 636 0
DWIDTH 7 0
BBX 5 2 0 3
BITMAP
68
B0
ENDCHAR
STARTCHAR char127
ENCODING 127
SWIDTH 636 0
DWIDTH 7 0
BBX 0 0 0 0
BITMAP
ENDCHAR
STARTCHAR char128
ENCODING 128
SWIDTH 636 0
DWIDTH 7 0
BBX 0 0 0 0
BITMAP
ENDCHAR
STARTCHAR char161
ENCODING 161
SWIDTH 636 0
DWIDTH 7 0
BBX 1 7 2 0
BITMAP
80
00
80
80
80
80
80
ENDCHAR
STARTCHAR char162
ENCODING 162
SWIDTH 636 0
DWIDTH 7 0
BBX 5 7 0 -1
BITMAP
20
70
A8
A0
A0
78
20
ENDCHAR
STARTCHAR char163
ENCODING 163
SWIDTH 636 0
DWIDTH 7 0
BBX 5 8 0 0
BITMAP
60
90
80
E0
80
40
48
F0
ENDCHAR
STARTCHAR char164
ENCODING 164
SWIDTH 636 0
DWIDTH 7 0
BBX 5 5 0 0
BITMAP
88
70
50
70
88
ENDCHAR
STARTCHAR char165
ENCODING 165
SWIDTH 636 0
DWIDTH 7 0
BBX 5 7 0 0
BITMAP
88
50
F8
20
F8
20
20
ENDCHAR
STARTCHAR char166
ENCODING 166
SWIDTH 636 0
DWIDTH 7 0
BBX 1 9 2 -1
BITMAP
80
80
80
80
00
80
80
80
80
ENDCHAR
STARTCHAR char167
ENCODING 167
SWIDTH 636 0
DWIDTH 7 0
BBX 5 10 0 -1
BITMAP
70
88
48
A0
90
48
28
90
88
70
ENDCHAR
STARTCHAR char168
ENCODING 168
SWIDTH 636 0
DWIDTH 7 0
BBX 3 1 1 6
BITMAP
A0
ENDCHAR
STARTCHAR char169
ENCODING 169
SWIDTH 636 0
DWIDTH 7 0
BBX 5 7 0 0
BITMAP
E0
10
68
88
68
10
E0
ENDCHAR
STARTCHAR char170
ENCODING 170
SWIDTH 636 0
DWIDTH 7 0
BBX 0 0 0 0
BITMAP
ENDCHAR
STARTCHAR char171
ENCODING 171
SWIDTH 636 0
DWIDTH 7 0
BBX 5 4 0 0
BITMAP
48
90
90
48
ENDCHAR
STARTCHAR char172
ENCODING 172
SWIDTH 636 0
DWIDTH 7 0
BBX 5 3 0 1
BITMAP
F8
08
08
ENDCHAR
STARTCHAR char173
ENCODING 173
SWIDTH 636 0
DWIDTH 7 0
BBX 5 1 0 3
BITMAP
F8
ENDCHAR
STARTCHAR char174
ENCODING 174
SWIDTH 636 0
DWIDTH 7 0
BBX 5 6 0 1
BITMAP
E0
10
C8
A8
C8
B0
ENDCHAR
STARTCHAR char175
ENCODING 175
SWIDTH 636 0
DWIDTH 7 0
BBX 3 1 1 6
BITMAP
E0
ENDCHAR
STARTCHAR char176
ENCODING 176
SWIDTH 636 0
DWIDTH 7 0
BBX 0 0 0 0
BITMAP
ENDCHAR
STARTCHAR char177
ENCODING 177
SWIDTH 636 0
DWIDTH 7 0
BBX 5 6 0 0
BITMAP
20
20
F8
20
20
F8
ENDCHAR
STARTCHAR char178
ENCODING 178
SWIDTH 636 0
DWIDTH 7 0
BBX 3 4 1 5
BITMAP
C0
20
40
E0
ENDCHAR
STARTCHAR char179
ENCODING 179
SWIDTH 636 0
DWIDTH 7 0
BBX 3 5 1 4
BITMAP
C0
20
60
20
C0
ENDCHAR
STARTCHAR char180
ENCODING 180
SWIDTH 636 0
DWIDTH 7 0
BBX 2 2 3 6
BITMAP
40
80
ENDCHAR
STARTCHAR char181
ENCODING 181
SWIDTH 636 0
DWIDTH 7 0
BBX 5 7 0 -2
BITMAP
90
90
90
90
E8
80
80
ENDCHAR
STARTCHAR char182
ENCODING 182
SWIDTH 636 0
DWIDTH 7 0
BBX 5 8 0 0
BITMAP
78
A8
A8
A8
78
28
28
28
ENDCHAR
STARTCHAR char183
ENCODING 183
SWIDTH 636 0
DWIDTH 7 0
BBX 3 3 1 -2
BITMAP
E0
60
C0
ENDCHAR
STARTCHAR char184
ENCODING 184
SWIDTH 636 0
DWIDTH 7 0
BBX 3 4 1 5
BITMAP
C0
40
40
E0
ENDCHAR
STARTCHAR char185
ENCODING 185
SWIDTH 636 0
DWIDTH 7 0
BBX 0 0 0 0
BITMAP
ENDCHAR
STARTCHAR char187
ENCODING 187
SWIDTH 636 0
DWIDTH 7 0
BBX 5 4 0 0
BITMAP
90
48
48
90
ENDCHAR
STARTCHAR char188
ENCODING 188
SWIDTH 636 0
DWIDTH 7 0
BBX 6 9 0 0
BITMAP
C0
40
44
E8
10
28
58
B8
08
ENDCHAR
STARTCHAR char189
ENCODING 189
SWIDTH 636 0
DWIDTH 7 0
BBX 6 9 0 0
BITMAP
C0
40
44
E8
10
38
44
88
1C
ENDCHAR
STARTCHAR char190
ENCODING 190
SWIDTH 636 0
DWIDTH 7 0
BBX 6 9 0 0
BITMAP
C0
20
64
28
D0
28
58
B8
08
ENDCHAR
STARTCHAR char191
ENCODING 191
SWIDTH 636 0
DWIDTH 7 0
BBX 5 7 0 0
BITMAP
20
00
20
40
80
88
70
ENDCHAR
STARTCHAR char192
ENCODING 192
SWIDTH 636 0
DWIDTH 7 0
BBX 5 9 0 0
BITMAP
40
20
70
88
88
F8
88
88
88
ENDCHAR
STARTCHAR char193
ENCODING 193
SWIDTH 636 0
DWIDTH 7 0
BBX 5 9 0 0
BITMAP
10
20
70
88
88
F8
88
88
88
ENDCHAR
STARTCHAR char194
ENCODING 194
SWIDTH 636 0
DWIDTH 7 0
BBX 5 9 0 0
BITMAP
20
50
70
88
88
F8
88
88
88
ENDCHAR
STARTCHAR char195
ENCODING 195
SWIDTH 636 0
DWIDTH 7 0
BBX 5 9 0 0
BITMAP
68
B0
70
88
88
F8
88
88
88
ENDCHAR
STARTCHAR char196
ENCODING 196
SWIDTH 636 0
DWIDTH 7 0
BBX 5 9 0 0
BITMAP
50
00
70
88
88
F8
88
88
88
ENDCHAR
STARTCHAR char197
ENCODING 197
SWIDTH 636 0
DWIDTH 7 0
BBX 5 9 0 0
BITMAP
20
50
70
88
88
88
F8
88
88
ENDCHAR
STARTCHAR char198
ENCODING 198
SWIDTH 636 0
DWIDTH 7 0
BBX 5 7 0 0
BITMAP
78
A0
A0
F0
A0
A0
B8
ENDCHAR
STARTCHAR char199
ENCODING 199
SWIDTH 636 0
DWIDTH 7 0
BBX 5 9 0 -2
BITMAP
70
88
80
80
80
88
70
20
40
ENDCHAR
STARTCHAR char200
ENCODING 200
SWIDTH 636 0
DWIDTH 7 0
BBX 5 9 0 0
BITMAP
40
20
F8
80
80
F0
80
80
F8
ENDCHAR
STARTCHAR char201
ENCODING 201
SWIDTH 636 0
DWIDTH 7 0
BBX 5 9 0 0
BITMAP
10
20
F8
80
80
F0
80
80
F8
ENDCHAR
STARTCHAR char202
ENCODING 202
SWIDTH 636 0
DWIDTH 7 0
BBX 5 9 0 0
BITMAP
20
50
F8
80
80
F0
80
80
F8
ENDCHAR
STARTCHAR char203
ENCODING 203
SWIDTH 636 0
DWIDTH 7 0
BBX 5 9 0 0
BITMAP
50
00
F8
80
80
F0
80
80
F8
ENDCHAR
STARTCHAR char204
ENCODING 204
SWIDTH 636 0
DWIDTH 7 0
BBX 5 9 0 0
BITMAP
40
20
F8
20
20
20
20
20
F8
ENDCHAR
STARTCHAR char205
ENCODING 205
SWIDTH 636 0
DWIDTH 7 0
BBX 5 9 0 0
BITMAP
10
20
F8
20
20
20
20
20
F8
ENDCHAR
STARTCHAR char206
ENCODING 206
SWIDTH 636 0
DWIDTH 7 0
BBX 5 9 0 0
BITMAP
20
50
00
F8
20
20
20
20
F8
ENDCHAR
STARTCHAR char207
ENCODING 207
SWIDTH 636 0
DWIDTH 7 0
BBX 5 9 0 0
BITMAP
50
00
F8
20
20
20
20
20
F8
ENDCHAR
STARTCHAR char208
ENCODING 208
SWIDTH 636 0
DWIDTH 7 0
BBX 5 7 0 0
BITMAP
70
48
48
E8
48
48
70
ENDCHAR
STARTCHAR char209
ENCODING 209
SWIDTH 636 0
DWIDTH 7 0
BBX 5 9 0 0
BITMAP
68
B0
88
C8
A8
98
88
88
88
ENDCHAR
STARTCHAR char210
ENCODING 210
SWIDTH 636 0
DWIDTH 7 0
BBX 5 9 0 0
BITMAP
40
20
70
88
88
88
88
88
70
ENDCHAR
STARTCHAR char211
ENCODING 211
SWIDTH 636 0
DWIDTH 7 0
BBX 5 9 0 0
BITMAP
10
20
70
88
88
88
88
88
70
ENDCHAR
STARTCHAR char212
ENCODING 212
SWIDTH 636 0
DWIDTH 7 0
BBX 5 9 0 0
BITMAP
20
50
00
70
88
88
88
88
70
ENDCHAR
STARTCHAR char213
ENCODING 213
SWIDTH 636 0
DWIDTH 7 0
BBX 5 9 0 0
BITMAP
68
B0
70
88
88
88
88
88
70
ENDCHAR
STARTCHAR char214
ENCODING 214
SWIDTH 636 0
DWIDTH 7 0
BBX 5 9 0 0
BITMAP
50
00
70
88
88
88
88
88
70
ENDCHAR
STARTCHAR char215
ENCODING 215
SWIDTH 636 0
DWIDTH 7 0
BBX 5 5 0 1
BITMAP
88
50
20
50
88
ENDCHAR
STARTCHAR char216
ENCODING 216
SWIDTH 636 0
DWIDTH 7 0
BBX 5 7 0 0
BITMAP
70
98
A8
A8
A8
C8
70
ENDCHAR
STARTCHAR char217
ENCODING 217
SWIDTH 636 0
DWIDTH 7 0
BBX 5 9 0 0
BITMAP
40
20
88
88
88
88
88
88
70
ENDCHAR
STARTCHAR char218
ENCODING 218
SWIDTH 636 0
DWIDTH 7 0
BBX 5 9 0 0
BITMAP
10
20
88
88
88
88
88
88
70
ENDCHAR
STARTCHAR char219
ENCODING 219
SWIDTH 636 0
DWIDTH 7 0
BBX 5 9 0 0
BITMAP
20
50
00
88
88
88
88
88
70
ENDCHAR
STARTCHAR char220
ENCODING 220
SWIDTH 636 0
DWIDTH 7 0
BBX 5 9 0 0
BITMAP
50
00
88
88
88
88
88
88
70
ENDCHAR
STARTCHAR char221
ENCODING 221
SWIDTH 636 0
DWIDTH 7 0
BBX 5 9 0 0
BITMAP
10
20
88
88
88
50
20
20
20
ENDCHAR
STARTCHAR char222
ENCODING 222
SWIDTH 636 0
DWIDTH 7 0
BBX 5 7 0 0
BITMAP
80
F0
88
88
F0
80
80
ENDCHAR
STARTCHAR char223
ENCODING 223
SWIDTH 636 0
DWIDTH 7 0
BBX 5 9 0 -1
BITMAP
30
48
88
90
90
88
88
B0
80
ENDCHAR
STARTCHAR char224
ENCODING 224
SWIDTH 636 0
DWIDTH 7 0
BBX 5 8 0 0
BITMAP
20
10
00
78
88
88
98
68
ENDCHAR
STARTCHAR char225
ENCODING 225
SWIDTH 636 0
DWIDTH 7 0
BBX 5 8 0 0
BITMAP
10
20
00
78
88
88
98
68
ENDCHAR
STARTCHAR char226
ENCODING 226
SWIDTH 636 0
DWIDTH 7 0
BBX 5 8 0 0
BITMAP
20
50
00
78
88
88
98
68
ENDCHAR
STARTCHAR char227
ENCODING 227
SWIDTH 636 0
DWIDTH 7 0
BBX 5 8 0 0
BITMAP
68
B0
00
78
88
88
98
68
ENDCHAR
STARTCHAR char228
ENCODING 228
SWIDTH 636 0
DWIDTH 7 0
BBX 5 7 0 0
BITMAP
50
00
78
88
88
98
68
ENDCHAR
STARTCHAR char229
ENCODING 229
SWIDTH 636 0
DWIDTH 7 0
BBX 5 8 0 0
BITMAP
20
50
20
78
88
88
98
68
ENDCHAR
STARTCHAR char230
ENCODING 230
SWIDTH 636 0
DWIDTH 7 0
BBX 5 5 0 0
BITMAP
70
A8
B8
A0
78
ENDCHAR
STARTCHAR char231
ENCODING 231
SWIDTH 636 0
DWIDTH 7 0
BBX 5 7 0 -2
BITMAP
70
88
80
80
78
20
40
ENDCHAR
STARTCHAR char232
ENCODING 232
SWIDTH 636 0
DWIDTH 7 0
BBX 5 8 0 0
BITMAP
40
20
00
70
88
F8
80
78
ENDCHAR
STARTCHAR char233
ENCODING 233
SWIDTH 636 0
DWIDTH 7 0
BBX 5 8 0 0
BITMAP
10
20
00
70
88
F8
80
78
ENDCHAR
STARTCHAR char234
ENCODING 234
SWIDTH 636 0
DWIDTH 7 0
BBX 5 8 0 0
BITMAP
20
50
00
70
88
F8
80
78
ENDCHAR
STARTCHAR char235
ENCODING 235
SWIDTH 636 0
DWIDTH 7 0
BBX 5 7 0 0
BITMAP
50
00
70
88
F8
80
78
ENDCHAR
STARTCHAR char236
ENCODING 236
SWIDTH 636 0
DWIDTH 7 0
BBX 3 8 1 0
BITMAP
80
40
00
C0
40
40
40
E0
ENDCHAR
STARTCHAR char237
ENCODING 237
SWIDTH 636 0
DWIDTH 7 0
BBX 3 8 1 0
BITMAP
20
40
00
C0
40
40
40
E0
ENDCHAR
STARTCHAR char238
ENCODING 238
SWIDTH 636 0
DWIDTH 7 0
BBX 3 8 1 0
BITMAP
40
A0
00
C0
40
40
40
E0
ENDCHAR
STARTCHAR char239
ENCODING 239
SWIDTH 636 0
DWIDTH 7 0
BBX 3 7 1 0
BITMAP
A0
00
C0
40
40
40
E0
ENDCHAR
STARTCHAR char240
ENCODING 240
SWIDTH 636 0
DWIDTH 7 0
BBX 5 8 0 0
BITMAP
60
60
10
78
88
88
88
70
ENDCHAR
STARTCHAR char241
ENCODING 241
SWIDTH 636 0
DWIDTH 7 0
BBX 5 8 0 0
BITMAP
68
B0
00
B0
C8
88
88
88
ENDCHAR
STARTCHAR char242
ENCODING 242
SWIDTH 636 0
DWIDTH 7 0
BBX 5 8 0 0
BITMAP
40
20
00
70
88
88
88
70
ENDCHAR
STARTCHAR char243
ENCODING 243
SWIDTH 636 0
DWIDTH 7 0
BBX 5 8 0 0
BITMAP
10
20
00
70
88
88
88
70
ENDCHAR
STARTCHAR char244
ENCODING 244
SWIDTH 636 0
DWIDTH 7 0
BBX 5 8 0 0
BITMAP
20
50
00
70
88
88
88
70
ENDCHAR
STARTCHAR char245
ENCODING 245
SWIDTH 636 0
DWIDTH 7 0
BBX 5 8 0 0
BITMAP
68
B0
00
70
88
88
88
70
ENDCHAR
STARTCHAR char246
ENCODING 246
SWIDTH 636 0
DWIDTH 7 0
BBX 5 7 0 0
BITMAP
50
00
70
88
88
88
70
ENDCHAR
STARTCHAR char247
ENCODING 247
SWIDTH 636 0
DWIDTH 7 0
BBX 5 5 0 1
BITMAP
20
00
F8
00
20
ENDCHAR
STARTCHAR char248
ENCODING 248
SWIDTH 636 0
DWIDTH 7 0
BBX 5 5 0 0
BITMAP
70
98
A8
C8
70
ENDCHAR
STARTCHAR char249
ENCODING 249
SWIDTH 636 0
DWIDTH 7 0
BBX 5 8 0 0
BITMAP
40
20
00
88
88
88
88
78
ENDCHAR
STARTCHAR char250
ENCODING 250
SWIDTH 636 0
DWIDTH 7 0
BBX 5 8 0 0
BITMAP
10
20
00
88
88
88
88
78
ENDCHAR
STARTCHAR char251
ENCODING 251
SWIDTH 636 0
DWIDTH 7 0
BBX 5 8 0 0
BITMAP
20
50
00
88
88
88
88
78
ENDCHAR
STARTCHAR char252
ENCODING 252
SWIDTH 636 0
DWIDTH 7 0
BBX 5 7 0 0
BITMAP
50
00
88
88
88
88
78
ENDCHAR
STARTCHAR char253
ENCODING 253
SWIDTH 636 0
DWIDTH 7 0
BBX 5 10 0 -2
BITMAP
10
20
00
88
88
88
88
78
08
70
ENDCHAR
STARTCHAR char254
ENCODING 254
SWIDTH 636 0
DWIDTH 7 0
BBX 5 9 0 -2
BITMAP
80
80
F0
88
88
88
F0
80
80
ENDCHAR
STARTCHAR char255
ENCODING 255
SWIDTH 636 0
DWIDTH 7 0
BBX 5 9 0 -2
BITMAP
50
00
88
88
88
88
78
08
70
ENDCHAR
STARTCHAR char256
ENCODING 256
SWIDTH 636 0
DWIDTH 7 0
BBX 5 9 0 0
BITMAP
70
00
70
88
88
F8
88
88
88
ENDCHAR
STARTCHAR char257
ENCODING 257
SWIDTH 636 0
DWIDTH 7 0
BBX 5 7 0 0
BITMAP
70
00
78
88
88
98
68
ENDCHAR
STARTCHAR char258
ENCODING 258
SWIDTH 636 0
DWIDTH 7 0
BBX 5 9 1 0
BITMAP
50
20
70
88
88
F8
88
88
88
ENDCHAR
STARTCHAR abreve
ENCODING 259
SWIDTH 636 0
DWIDTH 7 0
BBX 5 8 1 0
BITMAP
50
20
00
78
88
88
98
68
ENDCHAR
STARTCHAR Aogonek
ENCODING 260
SWIDTH 636 0
DWIDTH 7 0
BBX 5 9 0 -2
BITMAP
70
88
88
F8
88
88
88
10
08
ENDCHAR
STARTCHAR aogonek
ENCODING 261
SWIDTH 636 0
DWIDTH 7 0
BBX 5 7 0 -2
BITMAP
78
88
88
98
68
10
08
ENDCHAR
STARTCHAR Cacute
ENCODING 262
SWIDTH 636 0
DWIDTH 7 0
BBX 5 9 0 0
BITMAP
10
20
70
88
80
80
80
88
70
ENDCHAR
STARTCHAR cacute
ENCODING 263
SWIDTH 636 0
DWIDTH 7 0
BBX 5 8 0 0
BITMAP
20
40
00
78
80
80
80
78
ENDCHAR
STARTCHAR Ccircumflex
ENCODING 264
SWIDTH 636 0
DWIDTH 7 0
BBX 5 7 0 0
BITMAP
70
88
80
80
80
88
70
ENDCHAR
STARTCHAR ccircumflex
ENCODING 265
SWIDTH 636 0
DWIDTH 7 0
BBX 5 5 0 0
BITMAP
78
80
80
80
78
ENDCHAR
STARTCHAR Cdotaccent
ENCODING 266
SWIDTH 636 0
DWIDTH 7 0
BBX 5 9 0 0
BITMAP
20
00
70
88
80
80
80
88
70
ENDCHAR
STARTCHAR cdotaccent
ENCODING 267
SWIDTH 636 0
DWIDTH 7 0
BBX 5 7 0 0
BITMAP
20
00
78
80
80
80
78
ENDCHAR
STARTCHAR Ccaron
ENCODING 268
SWIDTH 636 0
DWIDTH 7 0
BBX 5 9 0 0
BITMAP
20
50
70
88
80
80
80
88
70
ENDCHAR
STARTCHAR ccaron
ENCODING 269
SWIDTH 636 0
DWIDTH 7 0
BBX 5 8 0 0
BITMAP
20
50
00
78
80
80
80
78
ENDCHAR
STARTCHAR Dcaron
ENCODING 270
SWIDTH 636 0
DWIDTH 7 0
BBX 5 7 0 0
BITMAP
F0
88
88
88
88
88
F0
ENDCHAR
STARTCHAR dcaron
ENCODING 271
SWIDTH 636 0
DWIDTH 7 0
BBX 5 7 0 0
BITMAP
08
08
78
88
88
88
78
ENDCHAR
STARTCHAR Dcroat
ENCODING 272
SWIDTH 636 0
DWIDTH 7 0
BBX 5 7 0 0
BITMAP
70
48
48
E8
48
48
70
ENDCHAR
STARTCHAR dcroat
ENCODING 273
SWIDTH 636 0
DWIDTH 7 0
BBX 5 7 0 0
BITMAP
38
08
78
88
88
88
78
ENDCHAR
STARTCHAR Emacron
ENCODING 274
SWIDTH 636 0
DWIDTH 7 0
BBX 5 9 0 0
BITMAP
70
00
F8
80
80
F0
80
80
F8
ENDCHAR
STARTCHAR emacron
ENCODING 275
SWIDTH 636 0
DWIDTH 7 0
BBX 5 7 0 0
BITMAP
70
00
70
88
F8
80
70
ENDCHAR
STARTCHAR Ebreve
ENCODING 276
SWIDTH 636 0
DWIDTH 7 0
BBX 5 9 0 0
BITMAP
70
00
F8
80
80
F0
80
80
F8
ENDCHAR
STARTCHAR ebreve
ENCODING 277
SWIDTH 636 0
DWIDTH 7 0
BBX 5 7 0 0
BITMAP
70
00
70
88
F8
80
70
ENDCHAR
STARTCHAR Edotaccent
ENCODING 278
SWIDTH 636 0
DWIDTH 7 0
BBX 5 7 0 0
BITMAP
F8
80
80
F0
80
80
F8
ENDCHAR
STARTCHAR edotaccent
ENCODING 279
SWIDTH 636 0
DWIDTH 7 0
BBX 5 5 0 0
BITMAP
70
88
F8
80
70
ENDCHAR
STARTCHAR Eogonek
ENCODING 280
SWIDTH 636 0
DWIDTH 7 0
BBX 5 9 1 -2
BITMAP
F8
80
80
F0
80
80
F8
10
08
ENDCHAR
STARTCHAR eogonek
ENCODING 281
SWIDTH 636 0
DWIDTH 7 0
BBX 5 7 1 -2
BITMAP
70
88
F8
80
78
10
08
ENDCHAR
STARTCHAR Ecaron
ENCODING 282
SWIDTH 636 0
DWIDTH 7 0
BBX 5 9 1 0
BITMAP
50
20
F8
80
80
F0
80
80
F8
ENDCHAR
STARTCHAR ecaron
ENCODING 283
SWIDTH 636 0
DWIDTH 7 0
BBX 5 7 1 0
BITMAP
50
20
70
88
F8
80
70
ENDCHAR
STARTCHAR Gcircumflex
ENCODING 284
SWIDTH 636 0
DWIDTH 7 0
BBX 5 9 1 0
BITMAP
20
50
70
88
80
98
88
88
70
ENDCHAR
STARTCHAR gcircumflex
ENCODING 285
SWIDTH 636 0
DWIDTH 7 0
BBX 5 10 1 -2
BITMAP
20
50
00
78
88
88
88
78
08
70
ENDCHAR
STARTCHAR Gbreve
ENCODING 286
SWIDTH 636 0
DWIDTH 7 0
BBX 5 9 1 0
BITMAP
50
20
70
88
80
98
88
88
70
ENDCHAR
STARTCHAR gbreve
ENCODING 287
SWIDTH 636 0
DWIDTH 7 0
BBX 5 10 1 -2
BITMAP
50
20
00
78
88
88
88
78
08
70
ENDCHAR
STARTCHAR Gdotaccent
ENCODING 288
SWIDTH 636 0
DWIDTH 7 0
BBX 5 9 1 0
BITMAP
20
00
70
88
80
98
88
88
70
ENDCHAR
STARTCHAR gdotaccent
ENCODING 289
SWIDTH 636 0
DWIDTH 7 0
BBX 5 9 1 -2
BITMAP
20
00
78
88
88
88
78
08
70
ENDCHAR
STARTCHAR Gcommaaccent
ENCODING 290
SWIDTH 636 0
DWIDTH 7 0
BBX 5 9 1 -2
BITMAP
70
88
80
98
88
88
70
20
40
ENDCHAR
STARTCHAR gcommaaccent
ENCODING 291
SWIDTH 636 0
DWIDTH 7 0
BBX 5 10 1 -2
BITMAP
40
20
00
78
88
88
88
78
08
70
ENDCHAR
STARTCHAR Hcircumflex
ENCODING 292
SWIDTH 636 0
DWIDTH 7 0
BBX 5 10 1 0
BITMAP
20
50
00
88
88
88
F8
88
88
88
ENDCHAR
STARTCHAR hcircumflex
ENCODING 293
SWIDTH 636 0
DWIDTH 7 0
BBX 5 10 1 0
BITMAP
20
50
00
80
80
F0
88
88
88
88
ENDCHAR
STARTCHAR Hbar
ENCODING 294
SWIDTH 636 0
DWIDTH 7 0
BBX 5 7 1 0
BITMAP
88
88
88
F8
88
88
88
ENDCHAR
STARTCHAR hbar
ENCODING 295
SWIDTH 636 0
DWIDTH 7 0
BBX 6 7 0 0
BITMAP
40
40
F8
44
44
44
44
ENDCHAR
STARTCHAR Itilde
ENCODING 296
SWIDTH 636 0
DWIDTH 7 0
BBX 5 9 1 0
BITMAP
68
B0
70
20
20
20
20
20
70
ENDCHAR
STARTCHAR itilde
ENCODING 297
SWIDTH 636 0
DWIDTH 7 0
BBX 5 8 1 0
BITMAP
68
B0
00
20
20
20
20
20
ENDCHAR
STARTCHAR Imacron
ENCODING 298
SWIDTH 636 0
DWIDTH 7 0
BBX 3 9 2 0
BITMAP
E0
00
E0
40
40
40
40
40
E0
ENDCHAR
STARTCHAR imacron
ENCODING 299
SWIDTH 636 0
DWIDTH 7 0
BBX 3 8 2 0
BITMAP
E0
00
00
40
40
40
40
40
ENDCHAR
STARTCHAR Ibreve
ENCODING 300
SWIDTH 636 0
DWIDTH 7 0
BBX 3 9 2 0
BITMAP
A0
40
E0
40
40
40
40
40
E0
ENDCHAR
STARTCHAR ibreve
ENCODING 301
SWIDTH 636 0
DWIDTH 7 0
BBX 3 9 2 0
BITMAP
A0
40
00
00
40
40
40
40
40
ENDCHAR
STARTCHAR Iogonek
ENCODING 302
SWIDTH 636 0
DWIDTH 7 0
BBX 3 8 2 -1
BITMAP
E0
40
40
40
40
40
E0
40
ENDCHAR
STARTCHAR iogonek
ENCODING 303
SWIDTH 636 0
DWIDTH 7 0
BBX 2 8 3 -1
BITMAP
80
00
80
80
80
80
80
40
ENDCHAR
STARTCHAR Idotaccent
ENCODING 304
SWIDTH 636 0
DWIDTH 7 0
BBX 3 9 2 0
BITMAP
40
00
E0
40
40
40
40
40
E0
ENDCHAR
STARTCHAR dotlessi
ENCODING 305
SWIDTH 636 0
DWIDTH 7 0
BBX 1 5 3 0
BITMAP
80
80
80
80
80
ENDCHAR
STARTCHAR IJ
ENCODING 306
SWIDTH 636 0
DWIDTH 7 0
BBX 5 7 1 0
BITMAP
78
28
28
28
A8
A8
70
ENDCHAR
STARTCHAR ij
ENCODING 307
SWIDTH 636 0
DWIDTH 7 0
BBX 2 9 2 -2
BITMAP
40
00
40
40
40
40
40
40
80
ENDCHAR
STARTCHAR Jcircumflex
ENCODING 308
SWIDTH 636 0
DWIDTH 7 0
BBX 5 10 1 0
BITMAP
20
50
00
08
08
08
08
88
88
70
ENDCHAR
STARTCHAR jcircumflex
ENCODING 309
SWIDTH 636 0
DWIDTH 7 0
BBX 3 10 2 -2
BITMAP
40
A0
00
40
40
40
40
40
40
80
ENDCHAR
STARTCHAR Kcommaaccent
ENCODING 310
SWIDTH 636 0
DWIDTH 7 0
BBX 5 9 1 -2
BITMAP
88
90
A0
C0
A0
90
88
20
40
ENDCHAR
STARTCHAR kcommaaccent
ENCODING 311
SWIDTH 636 0
DWIDTH 7 0
BBX 5 7 1 0
BITMAP
80
80
90
A0
E0
90
88
ENDCHAR
STARTCHAR kgreenlandic
ENCODING 312
SWIDTH 636 0
DWIDTH 7 0
BBX 4 5 1 0
BITMAP
90
A0
C0
A0
90
ENDCHAR
STARTCHAR Lacute
ENCODING 313
SWIDTH 636 0
DWIDTH 7 0
BBX 5 7 1 0
BITMAP
80
80
80
80
80
80
F8
ENDCHAR
STARTCHAR lacute
ENCODING 314
SWIDTH 636 0
DWIDTH 7 0
BBX 3 7 1 0
BITMAP
C0
40
40
40
40
40
E0
ENDCHAR
STARTCHAR Lcommaaccent
ENCODING 315
SWIDTH 636 0
DWIDTH 7 0
BBX 5 7 1 0
BITMAP
80
80
80
80
80
80
F8
ENDCHAR
STARTCHAR lcommaaccent
ENCODING 316
SWIDTH 636 0
DWIDTH 7 0
BBX 3 7 1 0
BITMAP
C0
40
40
40
40
40
E0
ENDCHAR
STARTCHAR Lcaron
ENCODING 317
SWIDTH 636 0
DWIDTH 7 0
BBX 5 7 1 0
BITMAP
80
80
80
80
80
80
F8
ENDCHAR
STARTCHAR lcaron
ENCODING 318
SWIDTH 636 0
DWIDTH 7 0
BBX 3 7 1 0
BITMAP
C0
40
40
40
40
40
E0
ENDCHAR
STARTCHAR Ldot
ENCODING 319
SWIDTH 636 0
DWIDTH 7 0
BBX 5 7 1 0
BITMAP
80
80
80
80
80
80
F8
ENDCHAR
STARTCHAR ldot
ENCODING 320
SWIDTH 636 0
DWIDTH 7 0
BBX 3 7 1 0
BITMAP
C0
40
40
40
40
40
E0
ENDCHAR
STARTCHAR Lslash
ENCODING 321
SWIDTH 636 0
DWIDTH 7 0
BBX 6 7 0 0
BITMAP
40
40
40
60
C0
40
7C
ENDCHAR
STARTCHAR lslash
ENCODING 322
SWIDTH 636 0
DWIDTH 7 0
BBX 3 7 2 0
BITMAP
C0
40
60
C0
40
40
E0
ENDCHAR
STARTCHAR Nacute
ENCODING 323
SWIDTH 636 0
DWIDTH 7 0
BBX 5 9 1 0
BITMAP
10
20
88
C8
A8
98
88
88
88
ENDCHAR
STARTCHAR nacute
ENCODING 324
SWIDTH 636 0
DWIDTH 7 0
BBX 5 8 1 0
BITMAP
20
40
00
F0
88
88
88
88
ENDCHAR
STARTCHAR Ncommaaccent
ENCODING 325
SWIDTH 636 0
DWIDTH 7 0
BBX 5 7 1 0
BITMAP
88
C8
A8
98
88
88
88
ENDCHAR
STARTCHAR ncommaaccent
ENCODING 326
SWIDTH 636 0
DWIDTH 7 0
BBX 5 5 1 0
BITMAP
F0
88
88
88
88
ENDCHAR
STARTCHAR Ncaron
ENCODING 327
SWIDTH 636 0
DWIDTH 7 0
BBX 5 9 1 0
BITMAP
50
20
88
C8
A8
98
88
88
88
ENDCHAR
STARTCHAR ncaron
ENCODING 328
SWIDTH 636 0
DWIDTH 7 0
BBX 5 7 1 0
BITMAP
50
20
F0
88
88
88
88
ENDCHAR
STARTCHAR napostrophe
ENCODING 329
SWIDTH 636 0
DWIDTH 7 0
BBX 5 7 1 0
BITMAP
40
80
F0
88
88
88
88
ENDCHAR
STARTCHAR Eng
ENCODING 330
SWIDTH 636 0
DWIDTH 7 0
BBX 5 8 1 -1
BITMAP
88
C8
A8
98
88
88
88
30
ENDCHAR
STARTCHAR eng
ENCODING 331
SWIDTH 636 0
DWIDTH 7 0
BBX 5 7 1 -2
BITMAP
F0
88
88
88
88
30
20
ENDCHAR
STARTCHAR Omacron
ENCODING 332
SWIDTH 636 0
DWIDTH 7 0
BBX 5 9 0 0
BITMAP
70
00
70
88
88
88
88
88
70
ENDCHAR
STARTCHAR omacron
ENCODING 333
SWIDTH 636 0
DWIDTH 7 0
BBX 5 7 0 0
BITMAP
70
00
70
88
88
88
70
ENDCHAR
STARTCHAR Obreve
ENCODING 334
SWIDTH 636 0
DWIDTH 7 0
BBX 5 9 0 0
BITMAP
70
00
70
88
88
88
88
88
70
ENDCHAR
STARTCHAR obreve
ENCODING 335
SWIDTH 636 0
DWIDTH 7 0
BBX 5 7 0 0
BITMAP
70
00
70
88
88
88
70
ENDCHAR
STARTCHAR Ohungarumlaut
ENCODING 336
SWIDTH 636 0
DWIDTH 7 0
BBX 5 9 0 0
BITMAP
70
00
70
88
88
88
88
88
70
ENDCHAR
STARTCHAR ohungarumlaut
ENCODING 337
SWIDTH 636 0
DWIDTH 7 0
BBX 5 7 0 0
BITMAP
70
00
70
88
88
88
70
ENDCHAR
STARTCHAR OE
ENCODING 338
SWIDTH 636 0
DWIDTH 7 0
BBX 5 7 0 0
BITMAP
78
A0
A0
B0
A0
A0
78
ENDCHAR
STARTCHAR oe
ENCODING 339
SWIDTH 636 0
DWIDTH 7 0
BBX 5 5 0 0
BITMAP
70
A8
B8
A0
78
ENDCHAR
STARTCHAR Racute
ENCODING 340
SWIDTH 636 0
DWIDTH 7 0
BBX 5 9 0 0
BITMAP
10
20
F0
88
88
F0
88
88
88
ENDCHAR
STARTCHAR racute
ENCODING 341
SWIDTH 636 0
DWIDTH 7 0
BBX 5 8 0 0
BITMAP
20
40
00
B0
C8
80
80
80
ENDCHAR
STARTCHAR Rcommaaccent
ENCODING 342
SWIDTH 636 0
DWIDTH 7 0
BBX 5 7 0 0
BITMAP
F0
88
88
F0
88
88
88
ENDCHAR
STARTCHAR rcommaaccent
ENCODING 343
SWIDTH 636 0
DWIDTH 7 0
BBX 5 5 0 0
BITMAP
B0
C8
80
80
80
ENDCHAR
STARTCHAR Rcaron
ENCODING 344
SWIDTH 636 0
DWIDTH 7 0
BBX 5 7 0 0
BITMAP
F0
88
88
F0
88
88
88
ENDCHAR
STARTCHAR rcaron
ENCODING 345
SWIDTH 636 0
DWIDTH 7 0
BBX 5 5 0 0
BITMAP
B0
C8
80
80
80
ENDCHAR
STARTCHAR Sacute
ENCODING 346
SWIDTH 636 0
DWIDTH 7 0
BBX 5 9 1 0
BITMAP
10
20
70
88
80
70
08
88
70
ENDCHAR
STARTCHAR sacute
ENCODING 347
SWIDTH 636 0
DWIDTH 7 0
BBX 5 8 1 0
BITMAP
10
20
00
78
80
70
08
F0
ENDCHAR
STARTCHAR Scircumflex
ENCODING 348
SWIDTH 636 0
DWIDTH 7 0
BBX 5 9 1 0
BITMAP
10
20
70
88
80
70
08
88
70
ENDCHAR
STARTCHAR scircumflex
ENCODING 349
SWIDTH 636 0
DWIDTH 7 0
BBX 5 8 1 0
BITMAP
10
20
00
78
80
70
08
F0
ENDCHAR
STARTCHAR Scedilla
ENCODING 350
SWIDTH 636 0
DWIDTH 7 0
BBX 5 9 1 0
BITMAP
10
20
70
88
80
70
08
88
70
ENDCHAR
STARTCHAR scedilla
ENCODING 351
SWIDTH 636 0
DWIDTH 7 0
BBX 5 8 1 0
BITMAP
10
20
00
78
80
70
08
F0
ENDCHAR
STARTCHAR Scaron
ENCODING 352
SWIDTH 636 0
DWIDTH 7 0
BBX 5 9 1 0
BITMAP
10
20
70
88
80
70
08
88
70
ENDCHAR
STARTCHAR scaron
ENCODING 353
SWIDTH 636 0
DWIDTH 7 0
BBX 5 8 1 0
BITMAP
10
20
00
78
80
70
08
F0
ENDCHAR
STARTCHAR Tcommaaccent
ENCODING 354
SWIDTH 636 0
DWIDTH 7 0
BBX 5 7 0 0
BITMAP
F8
A8
20
20
20
20
70
ENDCHAR
STARTCHAR tcommaaccent
ENCODING 355
SWIDTH 636 0
DWIDTH 7 0
BBX 4 7 1 0
BITMAP
40
40
E0
40
40
40
30
ENDCHAR
STARTCHAR Tcaron
ENCODING 356
SWIDTH 636 0
DWIDTH 7 0
BBX 5 7 0 0
BITMAP
F8
A8
20
20
20
20
70
ENDCHAR
STARTCHAR tcaron
ENCODING 357
SWIDTH 636 0
DWIDTH 7 0
BBX 4 7 1 0
BITMAP
40
40
E0
40
40
40
30
ENDCHAR
STARTCHAR Tbar
ENCODING 358
SWIDTH 636 0
DWIDTH 7 0
BBX 5 7 0 0
BITMAP
F8
A8
20
20
20
20
70
ENDCHAR
STARTCHAR tbar
ENCODING 359
SWIDTH 636 0
DWIDTH 7 0
BBX 4 7 1 0
BITMAP
40
40
E0
40
40
40
30
ENDCHAR
STARTCHAR Utilde
ENCODING 360
SWIDTH 636 0
DWIDTH 7 0
BBX 5 7 0 0
BITMAP
88
88
88
88
88
88
70
ENDCHAR
STARTCHAR utilde
ENCODING 361
SWIDTH 636 0
DWIDTH 7 0
BBX 5 5 0 0
BITMAP
88
88
88
98
68
ENDCHAR
STARTCHAR Umacron
ENCODING 362
SWIDTH 636 0
DWIDTH 7 0
BBX 5 7 0 0
BITMAP
88
88
88
88
88
88
70
ENDCHAR
STARTCHAR umacron
ENCODING 363
SWIDTH 636 0
DWIDTH 7 0
BBX 5 5 0 0
BITMAP
88
88
88
98
68
ENDCHAR
STARTCHAR Ubreve
ENCODING 364
SWIDTH 636 0
DWIDTH 7 0
BBX 5 7 0 0
BITMAP
88
88
88
88
88
88
70
ENDCHAR
STARTCHAR ubreve
ENCODING 365
SWIDTH 636 0
DWIDTH 7 0
BBX 5 5 0 0
BITMAP
88
88
88
98
68
ENDCHAR
STARTCHAR Uring
ENCODING 366
SWIDTH 636 0
DWIDTH 7 0
BBX 5 7 0 0
BITMAP
88
88
88
88
88
88
70
ENDCHAR
STARTCHAR uring
ENCODING 367
SWIDTH 636 0
DWIDTH 7 0
BBX 5 5 0 0
BITMAP
88
88
88
98
68
ENDCHAR
STARTCHAR Uhungarumlaut
ENCODING 368
SWIDTH 636 0
DWIDTH 7 0
BBX 5 7 0 0
BITMAP
88
88
88
88
88
88
70
ENDCHAR
STARTCHAR uhungarumlaut
ENCODING 369
SWIDTH 636 0
DWIDTH 7 0
BBX 5 5 0 0
BITMAP
88
88
88
98
68
ENDCHAR
STARTCHAR Uogonek
ENCODING 370
SWIDTH 636 0
DWIDTH 7 0
BBX 5 7 0 0
BITMAP
88
88
88
88
88
88
70
ENDCHAR
STARTCHAR uogonek
ENCODING 371
SWIDTH 636 0
DWIDTH 7 0
BBX 5 5 0 0
BITMAP
88
88
88
98
68
ENDCHAR
STARTCHAR Wcircumflex
ENCODING 372
SWIDTH 636 0
DWIDTH 7 0
BBX 5 7 0 0
BITMAP
A8
A8
A8
A8
A8
A8
50
ENDCHAR
STARTCHAR wcircumflex
ENCODING 373
SWIDTH 636 0
DWIDTH 7 0
BBX 5 5 0 0
BITMAP
A8
A8
A8
A8
50
ENDCHAR
STARTCHAR Ycircumflex
ENCODING 374
SWIDTH 636 0
DWIDTH 7 0
BBX 5 7 0 0
BITMAP
88
88
88
50
20
20
20
ENDCHAR
STARTCHAR ycircumflex
ENCODING 375
SWIDTH 636 0
DWIDTH 7 0
BBX 5 7 0 -2
BITMAP
88
88
88
88
78
08
70
ENDCHAR
STARTCHAR Ydieresis
ENCODING 376
SWIDTH 636 0
DWIDTH 7 0
BBX 5 7 0 0
BITMAP
88
88
88
50
20
20
20
ENDCHAR
STARTCHAR Zacute
ENCODING 377
SWIDTH 636 0
DWIDTH 7 0
BBX 5 9 1 0
BITMAP
10
20
F8
08
10
20
40
80
F8
ENDCHAR
STARTCHAR zacute
ENCODING 378
SWIDTH 636 0
DWIDTH 7 0
BBX 5 8 1 0
BITMAP
10
20
00
F8
10
20
40
F8
ENDCHAR
STARTCHAR Zdotaccent
ENCODING 379
SWIDTH 636 0
DWIDTH 7 0
BBX 5 9 1 0
BITMAP
20
00
F8
08
10
20
40
80
F8
ENDCHAR
STARTCHAR zdotaccent
ENCODING 380
SWIDTH 636 0
DWIDTH 7 0
BBX 5 7 1 0
BITMAP
20
00
F8
10
20
40
F8
ENDCHAR
STARTCHAR Zcaron
ENCODING 381
SWIDTH 636 0
DWIDTH 7 0
BBX 5 9 1 0
BITMAP
50
20
F8
08
10
20
40
80
F8
ENDCHAR
STARTCHAR zcaron
ENCODING 382
SWIDTH 636 0
DWIDTH 7 0
BBX 5 8 1 0
BITMAP
50
20
00
F8
10
20
40
F8
ENDCHAR
STARTCHAR breve
ENCODING 728
SWIDTH 636 0
DWIDTH 7 0
BBX 3 2 2 8
BITMAP
A0
40
ENDCHAR
STARTCHAR dotaccent
ENCODING 729
SWIDTH 636 0
DWIDTH 7 0
BBX 1 1 3 8
BITMAP
80
ENDCHAR
STARTCHAR ogonek
ENCODING 731
SWIDTH 636 0
DWIDTH 7 0
BBX 2 2 2 -1
BITMAP
80
40
ENDCHAR
STARTCHAR tilde
ENCODING 732
SWIDTH 636 0
DWIDTH 7 0
BBX 4 2 1 6
BITMAP
A0
50
ENDCHAR
STARTCHAR hungarumlaut
ENCODING 733
SWIDTH 636 0
DWIDTH 7 0
BBX 4 2 1 6
BITMAP
50
A0
ENDCHAR
STARTCHAR acutecomb
ENCODING 769
SWIDTH 636 0
DWIDTH 7 0
BBX 2 2 4 6
BITMAP
40
80
ENDCHAR
STARTCHAR uni0302
ENCODING 770
SWIDTH 636 0
DWIDTH 7 0
BBX 3 2 2 6
BITMAP
40
A0
ENDCHAR
STARTCHAR tildecomb
ENCODING 771
SWIDTH 636 0
DWIDTH 7 0
BBX 5 2 1 6
BITMAP
68
B0
ENDCHAR
STARTCHAR uni0304
ENCODING 772
SWIDTH 636 0
DWIDTH 7 0
BBX 3 1 3 7
BITMAP
E0
ENDCHAR
STARTCHAR uni0305
ENCODING 773
SWIDTH 636 0
DWIDTH 7 0
BBX 3 1 3 7
BITMAP
E0
ENDCHAR
STARTCHAR uni0306
ENCODING 774
SWIDTH 636 0
DWIDTH 7 0
BBX 3 2 3 6
BITMAP
A0
40
ENDCHAR
STARTCHAR uni0307
ENCODING 775
SWIDTH 636 0
DWIDTH 7 0
BBX 1 1 5 7
BITMAP
80
ENDCHAR
STARTCHAR uni0308
ENCODING 776
SWIDTH 636 0
DWIDTH 7 0
BBX 3 1 3 7
BITMAP
A0
ENDCHAR
STARTCHAR uni030A
ENCODING 778
SWIDTH 636 0
DWIDTH 7 0
BBX 3 3 3 6
BITMAP
40
A0
40
ENDCHAR
STARTCHAR uni030B
ENCODING 779
SWIDTH 636 0
DWIDTH 7 0
BBX 4 2 2 7
BITMAP
50
A0
ENDCHAR
STARTCHAR uni030C
ENCODING 780
SWIDTH 636 0
DWIDTH 7 0
BBX 3 2 3 7
BITMAP
A0
40
ENDCHAR
STARTCHAR Alphatonos
ENCODING 902
SWIDTH 636 0
DWIDTH 7 0
BBX 5 7 1 0
BITMAP
70
88
88
F8
88
88
88
ENDCHAR
STARTCHAR anoteleia
ENCODING 903
SWIDTH 636 0
DWIDTH 7 0
BBX 1 1 4 3
BITMAP
80
ENDCHAR
STARTCHAR Epsilontonos
ENCODING 904
SWIDTH 636 0
DWIDTH 7 0
BBX 5 7 1 0
BITMAP
F8
80
80
F0
80
80
F8
ENDCHAR
STARTCHAR Etatonos
ENCODING 905
SWIDTH 636 0
DWIDTH 7 0
BBX 5 7 1 0
BITMAP
88
88
88
F8
88
88
88
ENDCHAR
STARTCHAR Iotatonos
ENCODING 906
SWIDTH 636 0
DWIDTH 7 0
BBX 3 9 2 0
BITMAP
A0
00
E0
40
40
40
40
40
E0
ENDCHAR
STARTCHAR uni038B
ENCODING 907
SWIDTH 636 0
DWIDTH 7 0
BBX 0 0 0 0
BITMAP
ENDCHAR
STARTCHAR Omicrontonos
ENCODING 908
SWIDTH 636 0
DWIDTH 7 0
BBX 5 9 1 0
BITMAP
40
80
70
88
88
88
88
88
70
ENDCHAR
STARTCHAR uni038D
ENCODING 909
SWIDTH 636 0
DWIDTH 7 0
BBX 0 0 0 0
BITMAP
ENDCHAR
STARTCHAR Upsilontonos
ENCODING 910
SWIDTH 636 0
DWIDTH 7 0
BBX 5 9 1 0
BITMAP
C0
00
88
88
88
50
20
20
20
ENDCHAR
STARTCHAR Omegatonos
ENCODING 911
SWIDTH 636 0
DWIDTH 7 0
BBX 5 9 1 0
BITMAP
C0
00
70
88
88
88
88
50
D8
ENDCHAR
STARTCHAR iotadieresistonos
ENCODING 912
SWIDTH 636 0
DWIDTH 7 0
BBX 3 7 2 0
BITMAP
A0
00
40
40
40
40
40
ENDCHAR
STARTCHAR Alpha
ENCODING 913
SWIDTH 636 0
DWIDTH 7 0
BBX 5 7 1 0
BITMAP
70
88
88
F8
88
88
88
ENDCHAR
STARTCHAR Beta
ENCODING 914
SWIDTH 636 0
DWIDTH 7 0
BBX 5 7 1 0
BITMAP
F0
88
88
F0
88
88
F0
ENDCHAR
STARTCHAR Gamma
ENCODING 915
SWIDTH 636 0
DWIDTH 7 0
BBX 5 7 1 0
BITMAP
F8
80
80
80
80
80
80
ENDCHAR
STARTCHAR Delta
ENCODING 916
SWIDTH 636 0
DWIDTH 7 0
BBX 5 7 1 0
BITMAP
20
50
88
88
88
88
F8
ENDCHAR
STARTCHAR Epsilon
ENCODING 917
SWIDTH 636 0
DWIDTH 7 0
BBX 5 7 1 0
BITMAP
F8
80
80
F0
80
80
F8
ENDCHAR
STARTCHAR Zeta
ENCODING 918
SWIDTH 636 0
DWIDTH 7 0
BBX 5 7 1 0
BITMAP
F8
08
10
20
40
80
F8
ENDCHAR
STARTCHAR Eta
ENCODING 919
SWIDTH 636 0
DWIDTH 7 0
BBX 5 7 1 0
BITMAP
88
88
88
F8
88
88
88
ENDCHAR
STARTCHAR Theta
ENCODING 920
SWIDTH 636 0
DWIDTH 7 0
BBX 5 7 1 0
BITMAP
70
88
88
F8
88
88
70
ENDCHAR
STARTCHAR Iota
ENCODING 921
SWIDTH 636 0
DWIDTH 7 0
BBX 3 7 2 0
BITMAP
E0
40
40
40
40
40
E0
ENDCHAR
STARTCHAR Kappa
ENCODING 922
SWIDTH 636 0
DWIDTH 7 0
BBX 5 7 1 0
BITMAP
88
90
A0
C0
A0
90
88
ENDCHAR
STARTCHAR Lambda
ENCODING 923
SWIDTH 636 0
DWIDTH 7 0
BBX 5 7 1 0
BITMAP
20
20
50
50
88
88
88
ENDCHAR
STARTCHAR Mu
ENCODING 924
SWIDTH 636 0
DWIDTH 7 0
BBX 5 7 1 0
BITMAP
88
D8
A8
88
88
88
88
ENDCHAR
STARTCHAR Nu
ENCODING 925
SWIDTH 636 0
DWIDTH 7 0
BBX 5 7 1 0
BITMAP
88
C8
A8
98
88
88
88
ENDCHAR
STARTCHAR Xi
ENCODING 926
SWIDTH 636 0
DWIDTH 7 0
BBX 5 7 1 0
BITMAP
F8
00
50
70
50
00
F8
ENDCHAR
STARTCHAR Omicron
ENCODING 927
SWIDTH 636 0
DWIDTH 7 0
BBX 5 7 1 0
BITMAP
70
88
88
88
88
88
70
ENDCHAR
STARTCHAR Pi
ENCODING 928
SWIDTH 636 0
DWIDTH 7 0
BBX 5 7 1 0
BITMAP
F8
88
88
88
88
88
88
ENDCHAR
STARTCHAR Rho
ENCODING 929
SWIDTH 636 0
DWIDTH 7 0
BBX 5 7 1 0
BITMAP
F0
88
88
F0
80
80
80
ENDCHAR
STARTCHAR uni03A2
ENCODING 930
SWIDTH 636 0
DWIDTH 7 0
BBX 0 0 0 0
BITMAP
ENDCHAR
STARTCHAR Sigma
ENCODING 931
SWIDTH 636 0
DWIDTH 7 0
BBX 5 7 1 0
BITMAP
F0
88
40
20
40
88
F0
ENDCHAR
STARTCHAR Tau
ENCODING 932
SWIDTH 636 0
DWIDTH 7 0
BBX 5 7 1 0
BITMAP
F8
20
20
20
20
20
20
ENDCHAR
STARTCHAR Upsilon
ENCODING 933
SWIDTH 636 0
DWIDTH 7 0
BBX 5 7 1 0
BITMAP
88
88
88
50
20
20
20
ENDCHAR
STARTCHAR Phi
ENCODING 934
SWIDTH 636 0
DWIDTH 7 0
BBX 7 7 0 1
BITMAP
10
7C
92
92
92
7C
10
ENDCHAR
STARTCHAR Chi
ENCODING 935
SWIDTH 636 0
DWIDTH 7 0
BBX 5 7 1 0
BITMAP
88
88
50
20
50
88
88
ENDCHAR
STARTCHAR Psi
ENCODING 936
SWIDTH 636 0
DWIDTH 7 0
BBX 5 7 1 0
BITMAP
88
A8
A8
A8
70
20
20
ENDCHAR
STARTCHAR Omega
ENCODING 937
SWIDTH 636 0
DWIDTH 7 0
BBX 5 7 1 0
BITMAP
70
88
88
88
88
50
D8
ENDCHAR
STARTCHAR Iotadieresis
ENCODING 938
SWIDTH 636 0
DWIDTH 7 0
BBX 3 9 2 0
BITMAP
A0
00
E0
40
40
40
40
40
E0
ENDCHAR
STARTCHAR Upsilondieresis
ENCODING 939
SWIDTH 636 0
DWIDTH 7 0
BBX 5 9 1 0
BITMAP
50
00
88
88
88
50
20
20
20
ENDCHAR
STARTCHAR alphatonos
ENCODING 940
SWIDTH 636 0
DWIDTH 7 0
BBX 4 8 0 0
BITMAP
10
20
00
60
90
A0
90
60
ENDCHAR
STARTCHAR epsilontonos
ENCODING 941
SWIDTH 636 0
DWIDTH 7 0
BBX 5 9 1 0
BITMAP
10
20
00
70
88
E0
80
88
70
ENDCHAR
STARTCHAR etatonos
ENCODING 942
SWIDTH 636 0
DWIDTH 7 0
BBX 5 9 1 -1
BITMAP
10
20
00
F0
88
88
88
88
08
ENDCHAR
STARTCHAR iotatonos
ENCODING 943
SWIDTH 636 0
DWIDTH 7 0
BBX 2 8 2 0
BITMAP
40
80
00
80
80
80
80
80
ENDCHAR
STARTCHAR upsilondieresistonos
ENCODING 944
SWIDTH 636 0
DWIDTH 7 0
BBX 5 8 1 0
BITMAP
20
50
00
90
88
88
88
70
ENDCHAR
STARTCHAR alpha
ENCODING 945
SWIDTH 636 0
DWIDTH 7 0
BBX 5 5 0 0
BITMAP
60
98
88
98
60
ENDCHAR
STARTCHAR beta
ENCODING 946
SWIDTH 636 0
DWIDTH 7 0
BBX 5 8 1 -1
BITMAP
F0
88
88
B0
88
88
F0
80
ENDCHAR
STARTCHAR gamma
ENCODING 947
SWIDTH 636 0
DWIDTH 7 0
BBX 4 7 1 -3
BITMAP
90
90
90
70
90
90
E0
ENDCHAR
STARTCHAR delta
ENCODING 948
SWIDTH 636 0
DWIDTH 7 0
BBX 5 7 1 0
BITMAP
30
40
20
70
90
88
70
ENDCHAR
STARTCHAR epsilon
ENCODING 949
SWIDTH 636 0
DWIDTH 7 0
BBX 5 6 1 0
BITMAP
70
88
E0
80
88
70
ENDCHAR
STARTCHAR zeta
ENCODING 950
SWIDTH 636 0
DWIDTH 7 0
BBX 5 6 1 -1
BITMAP
F8
08
70
80
F8
10
ENDCHAR
STARTCHAR eta
ENCODING 951
SWIDTH 636 0
DWIDTH 7 0
BBX 5 6 1 -1
BITMAP
F0
88
88
88
88
08
ENDCHAR
STARTCHAR theta
ENCODING 952
SWIDTH 636 0
DWIDTH 7 0
BBX 4 7 1 0
BITMAP
60
90
90
F0
90
90
60
ENDCHAR
STARTCHAR iota
ENCODING 953
SWIDTH 636 0
DWIDTH 7 0
BBX 1 5 3 0
BITMAP
80
80
80
80
80
ENDCHAR
STARTCHAR kappa
ENCODING 954
SWIDTH 636 0
DWIDTH 7 0
BBX 4 5 1 0
BITMAP
90
A0
C0
A0
90
ENDCHAR
STARTCHAR lambda
ENCODING 955
SWIDTH 636 0
DWIDTH 7 0
BBX 5 7 1 0
BITMAP
60
10
10
70
90
90
88
ENDCHAR
STARTCHAR mu
ENCODING 956
SWIDTH 636 0
DWIDTH 7 0
BBX 5 5 1 -1
BITMAP
88
88
88
F8
80
ENDCHAR
STARTCHAR nu
ENCODING 957
SWIDTH 636 0
DWIDTH 7 0
BBX 5 4 1 0
BITMAP
88
88
50
20
ENDCHAR
STARTCHAR xi
ENCODING 958
SWIDTH 636 0
DWIDTH 7 0
BBX 5 5 1 0
BITMAP
78
40
F0
80
70
ENDCHAR
STARTCHAR omicron
ENCODING 959
SWIDTH 636 0
DWIDTH 7 0
BBX 5 5 1 0
BITMAP
70
88
88
88
70
ENDCHAR
STARTCHAR pi
ENCODING 960
SWIDTH 636 0
DWIDTH 7 0
BBX 5 5 1 0
BITMAP
70
88
88
88
88
ENDCHAR
STARTCHAR rho
ENCODING 961
SWIDTH 636 0
DWIDTH 7 0
BBX 5 7 1 -2
BITMAP
F0
88
88
88
F0
80
80
ENDCHAR
STARTCHAR sigma1
ENCODING 962
SWIDTH 636 0
DWIDTH 7 0
BBX 4 7 1 -2
BITMAP
70
80
80
80
70
10
20
ENDCHAR
STARTCHAR sigma
ENCODING 963
SWIDTH 636 0
DWIDTH 7 0
BBX 6 5 0 0
BITMAP
7C
88
88
88
70
ENDCHAR
STARTCHAR tau
ENCODING 964
SWIDTH 636 0
DWIDTH 7 0
BBX 5 5 1 0
BITMAP
F8
20
20
20
20
ENDCHAR
STARTCHAR upsilon
ENCODING 965
SWIDTH 636 0
DWIDTH 7 0
BBX 5 5 1 0
BITMAP
90
88
88
88
70
ENDCHAR
STARTCHAR phi
ENCODING 966
SWIDTH 636 0
DWIDTH 7 0
BBX 7 7 0 0
BITMAP
5C
92
92
92
7C
10
10
ENDCHAR
STARTCHAR chi
ENCODING 967
SWIDTH 636 0
DWIDTH 7 0
BBX 5 5 1 0
BITMAP
88
50
20
50
88
ENDCHAR
STARTCHAR psi
ENCODING 968
SWIDTH 636 0
DWIDTH 7 0
BBX 5 7 1 -2
BITMAP
A8
A8
A8
A8
70
20
20
ENDCHAR
STARTCHAR omega
ENCODING 969
SWIDTH 636 0
DWIDTH 7 0
BBX 5 5 1 0
BITMAP
A8
A8
A8
A8
78
ENDCHAR
STARTCHAR iotadieresis
ENCODING 970
SWIDTH 636 0
DWIDTH 7 0
BBX 3 8 2 0
BITMAP
40
A0
00
40
40
40
40
40
ENDCHAR
STARTCHAR upsilondieresis
ENCODING 971
SWIDTH 636 0
DWIDTH 7 0
BBX 5 7 1 0
BITMAP
50
00
90
88
88
88
70
ENDCHAR
STARTCHAR omicrontonos
ENCODING 972
SWIDTH 636 0
DWIDTH 7 0
BBX 5 8 1 1
BITMAP
10
20
00
70
88
88
88
70
ENDCHAR
STARTCHAR upsilontonos
ENCODING 973
SWIDTH 636 0
DWIDTH 7 0
BBX 5 8 1 0
BITMAP
10
20
00
90
88
88
88
70
ENDCHAR
STARTCHAR omegatonos
ENCODING 974
SWIDTH 636 0
DWIDTH 7 0
BBX 5 8 1 0
BITMAP
10
20
00
A8
A8
A8
A8
78
ENDCHAR
STARTCHAR afii10017
ENCODING 1040
SWIDTH 636 0
DWIDTH 7 0
BBX 5 7 1 0
BITMAP
70
88
88
F8
88
88
88
ENDCHAR
STARTCHAR afii10018
ENCODING 1041
SWIDTH 636 0
DWIDTH 7 0
BBX 5 7 1 0
BITMAP
F0
80
80
F0
88
88
F0
ENDCHAR
STARTCHAR afii10019
ENCODING 1042
SWIDTH 636 0
DWIDTH 7 0
BBX 5 7 1 0
BITMAP
F0
88
88
F0
88
88
F0
ENDCHAR
STARTCHAR afii10020
ENCODING 1043
SWIDTH 636 0
DWIDTH 7 0
BBX 5 7 1 0
BITMAP
78
80
80
80
80
80
80
ENDCHAR
STARTCHAR afii10021
ENCODING 1044
SWIDTH 636 0
DWIDTH 7 0
BBX 6 8 0 -1
BITMAP
38
48
48
48
48
48
FC
84
ENDCHAR
STARTCHAR afii10022
ENCODING 1045
SWIDTH 636 0
DWIDTH 7 0
BBX 5 7 1 0
BITMAP
F8
80
80
F0
80
80
F8
ENDCHAR
STARTCHAR afii10024
ENCODING 1046
SWIDTH 636 0
DWIDTH 7 0
BBX 5 7 1 0
BITMAP
A8
A8
70
20
70
A8
A8
ENDCHAR
STARTCHAR afii10025
ENCODING 1047
SWIDTH 636 0
DWIDTH 7 0
BBX 5 7 1 0
BITMAP
F0
08
08
70
08
08
F0
ENDCHAR
STARTCHAR afii10026
ENCODING 1048
SWIDTH 636 0
DWIDTH 7 0
BBX 5 7 1 0
BITMAP
88
88
98
A8
C8
88
88
ENDCHAR
STARTCHAR afii10027
ENCODING 1049
SWIDTH 636 0
DWIDTH 7 0
BBX 5 9 1 0
BITMAP
50
20
88
88
98
A8
C8
88
88
ENDCHAR
STARTCHAR afii10028
ENCODING 1050
SWIDTH 636 0
DWIDTH 7 0
BBX 5 7 1 0
BITMAP
88
90
A0
C0
A0
90
88
ENDCHAR
STARTCHAR afii10029
ENCODING 1051
SWIDTH 636 0
DWIDTH 7 0
BBX 5 7 1 0
BITMAP
38
48
48
48
48
48
88
ENDCHAR
STARTCHAR afii10030
ENCODING 1052
SWIDTH 636 0
DWIDTH 7 0
BBX 5 7 1 0
BITMAP
88
D8
A8
88
88
88
88
ENDCHAR
STARTCHAR afii10031
ENCODING 1053
SWIDTH 636 0
DWIDTH 7 0
BBX 5 7 1 0
BITMAP
88
88
88
F8
88
88
88
ENDCHAR
STARTCHAR afii10032
ENCODING 1054
SWIDTH 636 0
DWIDTH 7 0
BBX 5 7 1 0
BITMAP
70
88
88
88
88
88
70
ENDCHAR
STARTCHAR afii10033
ENCODING 1055
SWIDTH 636 0
DWIDTH 7 0
BBX 5 7 1 0
BITMAP
70
88
88
88
88
88
88
ENDCHAR
STARTCHAR afii10034
ENCODING 1056
SWIDTH 636 0
DWIDTH 7 0
BBX 5 7 1 0
BITMAP
F0
88
88
F0
80
80
80
ENDCHAR
STARTCHAR afii10035
ENCODING 1057
SWIDTH 636 0
DWIDTH 7 0
BBX 5 7 1 0
BITMAP
70
88
80
80
80
88
70
ENDCHAR
STARTCHAR afii10036
ENCODING 1058
SWIDTH 636 0
DWIDTH 7 0
BBX 5 7 1 0
BITMAP
F8
A8
20
20
20
20
70
ENDCHAR
STARTCHAR afii10037
ENCODING 1059
SWIDTH 636 0
DWIDTH 7 0
BBX 5 7 1 0
BITMAP
88
88
88
50
20
20
20
ENDCHAR
STARTCHAR afii10038
ENCODING 1060
SWIDTH 636 0
DWIDTH 7 0
BBX 5 7 1 0
BITMAP
70
A8
A8
A8
A8
A8
70
ENDCHAR
STARTCHAR afii10039
ENCODING 1061
SWIDTH 636 0
DWIDTH 7 0
BBX 5 7 1 0
BITMAP
88
88
50
20
50
88
88
ENDCHAR
STARTCHAR afii10040
ENCODING 1062
SWIDTH 636 0
DWIDTH 7 0
BBX 6 8 1 -1
BITMAP
88
88
88
88
88
88
7C
04
ENDCHAR
STARTCHAR afii10041
ENCODING 1063
SWIDTH 636 0
DWIDTH 7 0
BBX 5 7 1 0
BITMAP
88
88
88
78
08
08
08
ENDCHAR
STARTCHAR afii10042
ENCODING 1064
SWIDTH 636 0
DWIDTH 7 0
BBX 5 7 1 0
BITMAP
A8
A8
A8
A8
A8
A8
50
ENDCHAR
STARTCHAR afii10043
ENCODING 1065
SWIDTH 636 0
DWIDTH 7 0
BBX 6 8 1 -1
BITMAP
A8
A8
A8
A8
A8
A8
7C
04
ENDCHAR
STARTCHAR afii10044
ENCODING 1066
SWIDTH 636 0
DWIDTH 7 0
BBX 5 7 1 0
BITMAP
C0
40
40
70
48
48
70
ENDCHAR
STARTCHAR afii10045
ENCODING 1067
SWIDTH 636 0
DWIDTH 7 0
BBX 5 7 1 0
BITMAP
88
88
88
E8
98
98
E8
ENDCHAR
STARTCHAR afii10046
ENCODING 1068
SWIDTH 636 0
DWIDTH 7 0
BBX 4 7 2 0
BITMAP
80
80
80
E0
90
90
E0
ENDCHAR
STARTCHAR afii10047
ENCODING 1069
SWIDTH 636 0
DWIDTH 7 0
BBX 5 7 1 0
BITMAP
70
88
08
38
08
88
70
ENDCHAR
STARTCHAR afii10048
ENCODING 1070
SWIDTH 636 0
DWIDTH 7 0
BBX 5 7 1 0
BITMAP
B0
C8
C8
C8
C8
C8
B0
ENDCHAR
STARTCHAR afii10049
ENCODING 1071
SWIDTH 636 0
DWIDTH 7 0
BBX 5 7 1 0
BITMAP
78
88
88
78
88
88
88
ENDCHAR
STARTCHAR afii10065
ENCODING 1072
SWIDTH 636 0
DWIDTH 7 0
BBX 5 5 1 0
BITMAP
70
08
78
88
78
ENDCHAR
STARTCHAR afii10066
ENCODING 1073
SWIDTH 636 0
DWIDTH 7 0
BBX 5 7 1 0
BITMAP
10
60
80
F0
88
88
70
ENDCHAR
STARTCHAR afii10067
ENCODING 1074
SWIDTH 636 0
DWIDTH 7 0
BBX 5 5 1 0
BITMAP
F0
88
F0
88
F0
ENDCHAR
STARTCHAR afii10068
ENCODING 1075
SWIDTH 636 0
DWIDTH 7 0
BBX 5 5 1 0
BITMAP
78
80
80
80
80
ENDCHAR
STARTCHAR afii10069
ENCODING 1076
SWIDTH 636 0
DWIDTH 7 0
BBX 6 6 0 -1
BITMAP
38
48
48
48
FC
84
ENDCHAR
STARTCHAR afii10070
ENCODING 1077
SWIDTH 636 0
DWIDTH 7 0
BBX 5 5 1 0
BITMAP
70
88
F8
80
70
ENDCHAR
STARTCHAR afii10072
ENCODING 1078
SWIDTH 636 0
DWIDTH 7 0
BBX 5 5 1 0
BITMAP
A8
70
20
70
A8
ENDCHAR
STARTCHAR afii10073
ENCODING 1079
SWIDTH 636 0
DWIDTH 7 0
BBX 5 5 1 0
BITMAP
F0
08
70
08
F0
ENDCHAR
STARTCHAR afii10074
ENCODING 1080
SWIDTH 636 0
DWIDTH 7 0
BBX 5 5 1 0
BITMAP
88
98
A8
C8
88
ENDCHAR
STARTCHAR afii10075
ENCODING 1081
SWIDTH 636 0
DWIDTH 7 0
BBX 5 7 1 0
BITMAP
50
20
88
98
A8
C8
88
ENDCHAR
STARTCHAR afii10076
ENCODING 1082
SWIDTH 636 0
DWIDTH 7 0
BBX 4 5 1 0
BITMAP
90
A0
C0
A0
90
ENDCHAR
STARTCHAR afii10077
ENCODING 1083
SWIDTH 636 0
DWIDTH 7 0
BBX 5 5 1 0
BITMAP
38
48
48
48
88
ENDCHAR
STARTCHAR afii10078
ENCODING 1084
SWIDTH 636 0
DWIDTH 7 0
BBX 5 5 1 0
BITMAP
88
D8
A8
88
88
ENDCHAR
STARTCHAR afii10079
ENCODING 1085
SWIDTH 636 0
DWIDTH 7 0
BBX 5 5 1 0
BITMAP
88
88
F8
88
88
ENDCHAR
STARTCHAR afii10080
ENCODING 1086
SWIDTH 636 0
DWIDTH 7 0
BBX 5 5 1 0
BITMAP
70
88
88
88
70
ENDCHAR
STARTCHAR afii10081
ENCODING 1087
SWIDTH 636 0
DWIDTH 7 0
BBX 5 5 1 0
BITMAP
70
88
88
88
88
ENDCHAR
STARTCHAR afii10082
ENCODING 1088
SWIDTH 636 0
DWIDTH 7 0
BBX 5 7 1 -2
BITMAP
F0
88
88
88
F0
80
80
ENDCHAR
STARTCHAR afii10083
ENCODING 1089
SWIDTH 636 0
DWIDTH 7 0
BBX 5 5 1 0
BITMAP
78
80
80
80
78
ENDCHAR
STARTCHAR afii10084
ENCODING 1090
SWIDTH 636 0
DWIDTH 7 0
BBX 5 5 1 0
BITMAP
F8
A8
20
20
70
ENDCHAR
STARTCHAR afii10085
ENCODING 1091
SWIDTH 636 0
DWIDTH 7 0
BBX 5 7 1 -2
BITMAP
88
88
88
88
78
08
70
ENDCHAR
STARTCHAR afii10086
ENCODING 1092
SWIDTH 636 0
DWIDTH 7 0
BBX 5 9 1 -2
BITMAP
20
20
70
A8
A8
A8
70
20
20
ENDCHAR
STARTCHAR afii10087
ENCODING 1093
SWIDTH 636 0
DWIDTH 7 0
BBX 5 5 1 0
BITMAP
88
50
20
50
88
ENDCHAR
STARTCHAR afii10088
ENCODING 1094
SWIDTH 636 0
DWIDTH 7 0
BBX 6 6 1 -1
BITMAP
88
88
88
88
7C
04
ENDCHAR
STARTCHAR afii10089
ENCODING 1095
SWIDTH 636 0
DWIDTH 7 0
BBX 5 5 1 0
BITMAP
88
88
78
08
08
ENDCHAR
STARTCHAR afii10090
ENCODING 1096
SWIDTH 636 0
DWIDTH 7 0
BBX 5 5 1 0
BITMAP
A8
A8
A8
A8
78
ENDCHAR
STARTCHAR afii10091
ENCODING 1097
SWIDTH 636 0
DWIDTH 7 0
BBX 6 6 1 -1
BITMAP
A8
A8
A8
A8
7C
04
ENDCHAR
STARTCHAR afii10092
ENCODING 1098
SWIDTH 636 0
DWIDTH 7 0
BBX 5 6 1 0
BITMAP
C0
40
40
70
48
70
ENDCHAR
STARTCHAR afii10093
ENCODING 1099
SWIDTH 636 0
DWIDTH 7 0
BBX 5 5 1 0
BITMAP
88
88
E8
98
E8
ENDCHAR
STARTCHAR afii10094
ENCODING 1100
SWIDTH 636 0
DWIDTH 7 0
BBX 4 5 2 0
BITMAP
80
80
E0
90
E0
ENDCHAR
STARTCHAR afii10095
ENCODING 1101
SWIDTH 636 0
DWIDTH 7 0
BBX 5 5 1 0
BITMAP
F0
08
78
08
F0
ENDCHAR
STARTCHAR afii10096
ENCODING 1102
SWIDTH 636 0
DWIDTH 7 0
BBX 5 5 1 0
BITMAP
B0
C8
C8
C8
B0
ENDCHAR
STARTCHAR afii10097
ENCODING 1103
SWIDTH 636 0
DWIDTH 7 0
BBX 5 5 1 0
BITMAP
78
88
78
88
88
ENDCHAR
STARTCHAR uni0450
ENCODING 1104
SWIDTH 636 0
DWIDTH 7 0
BBX 5 8 1 0
BITMAP
40
20
00
70
88
F8
80
70
ENDCHAR
STARTCHAR afii10071
ENCODING 1105
SWIDTH 636 0
DWIDTH 7 0
BBX 5 7 1 0
BITMAP
50
00
70
88
F8
80
70
ENDCHAR
ENDFONT
